<svg xmlns="http://www.w3.org/2000/svg" xml:lang="en" height="121.93599999999998pt" width="125.49999999999999pt" viewBox="-18.199999999999996 -99.19999999999999 125.49999999999999 121.93599999999998"><circle cx="2.975891721928068e-15" cy="-48.599999999999994" r="16.2" style="stroke:black;fill:none;stroke-width:2;" /><polygon points="105.29999999999998,-54.269999999999996 97.19999999999997,-42.93000000000001 89.1,-54.269999999999996 " style="stroke:black;fill:none;stroke-width:2;stroke-linecap:round;stroke-linejoin:round;" /><path d="M 0.0,-0.0 L 1.9839278146187122e-15,-32.4 L 1.9839278146187122e-15,-32.4 M 3.9678556292374245e-15,-64.8 L 3.9678556292374245e-15,-64.8 L 5.951783443856136e-15,-97.19999999999999" style="stroke:black;fill:none;stroke-width:2;stroke-linecap:round;stroke-linejoin:round;" /><path d="M -8.099999999999996,-48.599999999999994 L -7.424999999999995,-50.277147412264334 L -6.749999999999996,-51.84 L -6.074999999999996,-53.182051942088826 L -5.399999999999995,-54.21184461652316 L -4.724999999999995,-54.859199354353166 L -4.049999999999996,-55.08 L -3.3749999999999956,-54.85919935435316 L -2.699999999999996,-54.21184461652316 L -2.024999999999997,-53.18205194208883 L -1.3499999999999956,-51.839999999999996 L -0.6749999999999964,-50.277147412264334 L 2.975891721928068e-15,-48.599999999999994 L 0.6750000000000032,-46.92285258773566 L 1.3500000000000032,-45.35999999999999 L 2.0250000000000026,-44.01794805791117 L 2.700000000000003,-42.98815538347684 L 3.375000000000003,-42.34080064564683 L 4.0500000000000025,-42.12 L 4.725000000000003,-42.34080064564684 L 5.400000000000003,-42.98815538347684 L 6.075000000000003,-44.01794805791116 L 6.750000000000003,-45.35999999999999 L 7.4250000000000025,-46.922852587735655 L 8.100000000000003,-48.599999999999994" style="stroke:black;fill:none;stroke-width:2;stroke-linecap:round;stroke-linejoin:round;" /><path d="M 5.951783443856136e-15,-97.19999999999999 L 48.60000000000001,-97.19999999999999 L 97.19999999999999,-97.19999999999999" style="stroke:black;fill:none;stroke-width:2;stroke-linecap:round;stroke-linejoin:round;" /><path d="M 97.19999999999999,-97.19999999999999 L 97.19999999999997,-54.269999999999996 M 105.29999999999998,-42.93000000000001 L 89.09999999999998,-42.93000000000001 M 97.19999999999997,-42.93000000000001 L 97.19999999999997,-0.0" style="stroke:black;fill:none;stroke-width:2;stroke-linecap:round;stroke-linejoin:round;" /><path d="M 97.19999999999997,-0.0 L 48.59999999999998,-5.951783443856136e-15 L -1.4388490399142028e-14,-1.1903566887712272e-14" style="stroke:black;fill:none;stroke-width:2;stroke-linecap:round;stroke-linejoin:round;" /><path d="M -1.4388490399142028e-14,-1.1903566887712272e-14 L -1.4388490399142028e-14,12.959999999999988 L -8.100000000000014,12.959999999999988 L 8.099999999999985,12.959999999999988 M -5.670000000000014,16.84799999999999 L 5.669999999999985,16.84799999999999 M -1.6200000000000143,20.73599999999999 L 1.6199999999999857,20.73599999999999" style="stroke:black;fill:none;stroke-width:2;stroke-linecap:round;stroke-linejoin:round;" /></svg>