<svg xmlns="http://www.w3.org/2000/svg" xml:lang="en" height="130.036pt" width="187.24558pt" viewBox="-18.199999999999996 -107.3 187.24558 130.036"><circle cx="2.975891721928068e-15" cy="-48.599999999999994" r="16.2" style="stroke:black;fill:none;stroke-width:2;" /><polygon points="42.93000000000001,-105.3 54.269999999999996,-97.19999999999999 42.93000000000001,-89.1 " style="stroke:black;fill:none;stroke-width:2;stroke-linecap:round;stroke-linejoin:round;" /><path d="M 0.0,-0.0 L 1.9839278146187122e-15,-32.4 L 1.9839278146187122e-15,-32.4 M 3.9678556292374245e-15,-64.8 L 3.9678556292374245e-15,-64.8 L 5.951783443856136e-15,-97.19999999999999" style="stroke:black;fill:none;stroke-width:2;stroke-linecap:round;stroke-linejoin:round;" /><path d="M -8.099999999999996,-48.599999999999994 L -7.424999999999995,-50.277147412264334 L -6.749999999999996,-51.84 L -6.074999999999996,-53.182051942088826 L -5.399999999999995,-54.21184461652316 L -4.724999999999995,-54.859199354353166 L -4.049999999999996,-55.08 L -3.3749999999999956,-54.85919935435316 L -2.699999999999996,-54.21184461652316 L -2.024999999999997,-53.18205194208883 L -1.3499999999999956,-51.839999999999996 L -0.6749999999999964,-50.277147412264334 L 2.975891721928068e-15,-48.599999999999994 L 0.6750000000000032,-46.92285258773566 L 1.3500000000000032,-45.35999999999999 L 2.0250000000000026,-44.01794805791117 L 2.700000000000003,-42.98815538347684 L 3.375000000000003,-42.34080064564683 L 4.0500000000000025,-42.12 L 4.725000000000003,-42.34080064564684 L 5.400000000000003,-42.98815538347684 L 6.075000000000003,-44.01794805791116 L 6.750000000000003,-45.35999999999999 L 7.4250000000000025,-46.922852587735655 L 8.100000000000003,-48.599999999999994" style="stroke:black;fill:none;stroke-width:2;stroke-linecap:round;stroke-linejoin:round;" /><path d="M 5.951783443856136e-15,-97.19999999999999 L 42.93000000000001,-97.19999999999999 M 54.269999999999996,-105.3 L 54.269999999999996,-89.1 M 54.269999999999996,-97.19999999999999 L 97.19999999999999,-97.19999999999999" style="stroke:black;fill:none;stroke-width:2;stroke-linecap:round;stroke-linejoin:round;" /><path d="M 97.19999999999999,-97.19999999999999 L 113.39999999999999,-97.19999999999999 L 129.6,-97.19999999999999" style="stroke:black;fill:none;stroke-width:2;stroke-linecap:round;stroke-linejoin:round;" /><path d="M 129.6,-97.19999999999999 L 129.6,-64.8 L 137.7,-62.1 L 121.5,-56.699999999999996 L 137.7,-51.300000000000004 L 121.49999999999999,-45.9 L 137.7,-40.5 L 121.49999999999999,-35.1 L 129.59999999999997,-32.4 L 129.59999999999997,-0.0" style="stroke:black;fill:none;stroke-width:2;stroke-linecap:round;stroke-linejoin:round;" /><path d="M 129.59999999999997,-0.0 L 113.39999999999998,-1.9839278146187122e-15 L 97.19999999999997,-3.9678556292374245e-15" style="stroke:black;fill:none;stroke-width:2;stroke-linecap:round;stroke-linejoin:round;" /><path d="M 97.19999999999997,-3.9678556292374245e-15 L 48.59999999999998,-9.91963907309356e-15 L -1.4388490399142028e-14,-1.5871422516949698e-14" style="stroke:black;fill:none;stroke-width:2;stroke-linecap:round;stroke-linejoin:round;" /><path d="M -1.4388490399142028e-14,-1.5871422516949698e-14 L -1.4388490399142028e-14,12.959999999999983 L -8.100000000000014,12.959999999999983 L 8.099999999999985,12.959999999999983 M -5.670000000000014,16.847999999999985 L 5.669999999999985,16.847999999999985 M -1.6200000000000143,20.735999999999986 L 1.6199999999999857,20.735999999999986" style="stroke:black;fill:none;stroke-width:2;stroke-linecap:round;stroke-linejoin:round;" /><g><g fill="black"><symbol id="STIXTwoMath-Regular_3784" width="560" height="51.216" viewBox="0 -31.524 560 51.216"><path d="M 0.396 0.0 L 1.992 -7.884 L 4.212 -7.884 Q 5.364 -7.884, 6.042 -7.452 Q 6.72 -7.0200000000000005, 6.72 -5.988 Q 6.72 -5.28, 6.4079999999999995 -4.758 Q 6.096 -4.236, 5.562 -3.894 Q 5.0280000000000005 -3.552, 4.356 -3.42 L 5.772 0.0 L 4.74 0.0 L 3.42 -3.336 L 2.028 -3.336 L 1.344 0.0 Z M 2.196 -4.104 L 3.396 -4.104 Q 4.548 -4.104, 5.16 -4.59 Q 5.772 -5.0760000000000005, 5.772 -5.88 Q 5.772 -6.5520000000000005, 5.328 -6.8340000000000005 Q 4.884 -7.1160000000000005, 3.972 -7.1160000000000005 L 2.7960000000000003 -7.1160000000000005 Z " /></symbol><use href="#STIXTwoMath-Regular_3784" transform="translate(140.93999999999997 -81.72925000000001) scale(1.1666666666666667)" /><symbol id="STIXTwoMath-Regular_3778" width="408" height="51.216" viewBox="0 -31.524 408 51.216"><path d="M 0.396 0.0 L 1.992 -7.884 L 2.952 -7.884 L 1.512 -0.804 L 4.896 -0.804 L 4.74 0.0 Z " /></symbol><use href="#STIXTwoMath-Regular_3778" transform="translate(148.89199999999997 -67.75585000000001) scale(0.8166666666666668)" /></g></g></svg>